<mxfile host="Electron" agent="Mozilla/5.0 (Windows NT 10.0; Win64; x64) AppleWebKit/537.36 (KHTML, like Gecko) draw.io/26.1.1 Chrome/132.0.6834.210 Electron/34.3.3 Safari/537.36" version="26.1.1">
  <diagram name="Page-1" id="_LbN-daLGDzrdzj1NdvH">
    <mxGraphModel dx="2074" dy="1196" grid="1" gridSize="10" guides="1" tooltips="1" connect="1" arrows="1" fold="1" page="1" pageScale="1" pageWidth="850" pageHeight="1100" math="0" shadow="0">
      <root>
        <mxCell id="0" />
        <mxCell id="1" parent="0" />
        <mxCell id="skW0CsrQxEbJvOdxTd8q-1" value="Start" style="ellipse;whiteSpace=wrap;html=1;" parent="1" vertex="1">
          <mxGeometry x="305" y="30" width="175" height="110" as="geometry" />
        </mxCell>
        <mxCell id="skW0CsrQxEbJvOdxTd8q-2" value="Input monthlyPay" style="shape=parallelogram;perimeter=parallelogramPerimeter;whiteSpace=wrap;html=1;fixedSize=1;" parent="1" vertex="1">
          <mxGeometry x="305" y="160" width="160" height="80" as="geometry" />
        </mxCell>
        <mxCell id="qBskc6iz1nUyQAH2Ge_z-4" style="edgeStyle=orthogonalEdgeStyle;rounded=0;orthogonalLoop=1;jettySize=auto;html=1;exitX=0.5;exitY=1;exitDx=0;exitDy=0;" edge="1" parent="1" source="skW0CsrQxEbJvOdxTd8q-3">
          <mxGeometry relative="1" as="geometry">
            <mxPoint x="359" y="480" as="targetPoint" />
          </mxGeometry>
        </mxCell>
        <mxCell id="skW0CsrQxEbJvOdxTd8q-3" value="Input utilities" style="shape=parallelogram;perimeter=parallelogramPerimeter;whiteSpace=wrap;html=1;fixedSize=1;" parent="1" vertex="1">
          <mxGeometry x="280" y="370" width="157.5" height="90" as="geometry" />
        </mxCell>
        <mxCell id="qBskc6iz1nUyQAH2Ge_z-3" style="edgeStyle=orthogonalEdgeStyle;rounded=0;orthogonalLoop=1;jettySize=auto;html=1;exitX=0.5;exitY=1;exitDx=0;exitDy=0;" edge="1" parent="1" source="skW0CsrQxEbJvOdxTd8q-4">
          <mxGeometry relative="1" as="geometry">
            <mxPoint x="373" y="360" as="targetPoint" />
          </mxGeometry>
        </mxCell>
        <mxCell id="skW0CsrQxEbJvOdxTd8q-4" value="Input rent" style="shape=parallelogram;perimeter=parallelogramPerimeter;whiteSpace=wrap;html=1;fixedSize=1;" parent="1" vertex="1">
          <mxGeometry x="292.5" y="260" width="160" height="80" as="geometry" />
        </mxCell>
        <mxCell id="qBskc6iz1nUyQAH2Ge_z-7" style="edgeStyle=orthogonalEdgeStyle;rounded=0;orthogonalLoop=1;jettySize=auto;html=1;exitX=0.5;exitY=1;exitDx=0;exitDy=0;" edge="1" parent="1" source="skW0CsrQxEbJvOdxTd8q-5">
          <mxGeometry relative="1" as="geometry">
            <mxPoint x="350" y="610" as="targetPoint" />
          </mxGeometry>
        </mxCell>
        <mxCell id="skW0CsrQxEbJvOdxTd8q-5" value="Input groceryBills" style="shape=parallelogram;perimeter=parallelogramPerimeter;whiteSpace=wrap;html=1;fixedSize=1;" parent="1" vertex="1">
          <mxGeometry x="270" y="490" width="160" height="90" as="geometry" />
        </mxCell>
        <mxCell id="qBskc6iz1nUyQAH2Ge_z-1" style="edgeStyle=orthogonalEdgeStyle;rounded=0;orthogonalLoop=1;jettySize=auto;html=1;exitX=0.5;exitY=1;exitDx=0;exitDy=0;entryX=0.55;entryY=-0.05;entryDx=0;entryDy=0;entryPerimeter=0;" edge="1" parent="1" source="skW0CsrQxEbJvOdxTd8q-1" target="skW0CsrQxEbJvOdxTd8q-2">
          <mxGeometry relative="1" as="geometry" />
        </mxCell>
        <mxCell id="qBskc6iz1nUyQAH2Ge_z-2" style="edgeStyle=orthogonalEdgeStyle;rounded=0;orthogonalLoop=1;jettySize=auto;html=1;exitX=0.5;exitY=1;exitDx=0;exitDy=0;entryX=0.566;entryY=-0.037;entryDx=0;entryDy=0;entryPerimeter=0;" edge="1" parent="1" source="skW0CsrQxEbJvOdxTd8q-2" target="skW0CsrQxEbJvOdxTd8q-4">
          <mxGeometry relative="1" as="geometry" />
        </mxCell>
        <mxCell id="qBskc6iz1nUyQAH2Ge_z-8" style="edgeStyle=orthogonalEdgeStyle;rounded=0;orthogonalLoop=1;jettySize=auto;html=1;exitX=0.5;exitY=1;exitDx=0;exitDy=0;" edge="1" parent="1" source="qBskc6iz1nUyQAH2Ge_z-5">
          <mxGeometry relative="1" as="geometry">
            <mxPoint x="350" y="760" as="targetPoint" />
          </mxGeometry>
        </mxCell>
        <mxCell id="qBskc6iz1nUyQAH2Ge_z-5" value="totalBills = monthlyPay + rent + utilities + groceryBills" style="rounded=0;whiteSpace=wrap;html=1;" vertex="1" parent="1">
          <mxGeometry x="220" y="620" width="260" height="110" as="geometry" />
        </mxCell>
        <mxCell id="qBskc6iz1nUyQAH2Ge_z-12" style="edgeStyle=orthogonalEdgeStyle;rounded=0;orthogonalLoop=1;jettySize=auto;html=1;exitX=0.5;exitY=1;exitDx=0;exitDy=0;" edge="1" parent="1" source="qBskc6iz1nUyQAH2Ge_z-6">
          <mxGeometry relative="1" as="geometry">
            <mxPoint x="350" y="910" as="targetPoint" />
          </mxGeometry>
        </mxCell>
        <mxCell id="qBskc6iz1nUyQAH2Ge_z-6" value="discretionaryAmount = monthlyPay - total bills" style="rounded=0;whiteSpace=wrap;html=1;" vertex="1" parent="1">
          <mxGeometry x="220" y="770" width="260" height="110" as="geometry" />
        </mxCell>
        <mxCell id="qBskc6iz1nUyQAH2Ge_z-13" style="edgeStyle=orthogonalEdgeStyle;rounded=0;orthogonalLoop=1;jettySize=auto;html=1;exitX=0.5;exitY=1;exitDx=0;exitDy=0;" edge="1" parent="1" source="qBskc6iz1nUyQAH2Ge_z-9">
          <mxGeometry relative="1" as="geometry">
            <mxPoint x="340" y="1050" as="targetPoint" />
          </mxGeometry>
        </mxCell>
        <mxCell id="qBskc6iz1nUyQAH2Ge_z-9" value="Output displayPay" style="shape=parallelogram;perimeter=parallelogramPerimeter;whiteSpace=wrap;html=1;fixedSize=1;" vertex="1" parent="1">
          <mxGeometry x="250" y="920" width="180" height="90" as="geometry" />
        </mxCell>
        <mxCell id="qBskc6iz1nUyQAH2Ge_z-14" style="edgeStyle=orthogonalEdgeStyle;rounded=0;orthogonalLoop=1;jettySize=auto;html=1;exitX=0.5;exitY=1;exitDx=0;exitDy=0;" edge="1" parent="1" source="qBskc6iz1nUyQAH2Ge_z-10">
          <mxGeometry relative="1" as="geometry">
            <mxPoint x="325" y="1180" as="targetPoint" />
          </mxGeometry>
        </mxCell>
        <mxCell id="qBskc6iz1nUyQAH2Ge_z-10" value="Output totalBills" style="shape=parallelogram;perimeter=parallelogramPerimeter;whiteSpace=wrap;html=1;fixedSize=1;" vertex="1" parent="1">
          <mxGeometry x="240" y="1060" width="170" height="90" as="geometry" />
        </mxCell>
        <mxCell id="qBskc6iz1nUyQAH2Ge_z-16" style="edgeStyle=orthogonalEdgeStyle;rounded=0;orthogonalLoop=1;jettySize=auto;html=1;exitX=0.5;exitY=1;exitDx=0;exitDy=0;" edge="1" parent="1" source="qBskc6iz1nUyQAH2Ge_z-11">
          <mxGeometry relative="1" as="geometry">
            <mxPoint x="320" y="1330" as="targetPoint" />
          </mxGeometry>
        </mxCell>
        <mxCell id="qBskc6iz1nUyQAH2Ge_z-11" value="Output discretionaryAmount" style="shape=parallelogram;perimeter=parallelogramPerimeter;whiteSpace=wrap;html=1;fixedSize=1;" vertex="1" parent="1">
          <mxGeometry x="240" y="1190" width="180" height="90" as="geometry" />
        </mxCell>
        <mxCell id="qBskc6iz1nUyQAH2Ge_z-15" value="Stop" style="ellipse;whiteSpace=wrap;html=1;" vertex="1" parent="1">
          <mxGeometry x="240" y="1340" width="150" height="100" as="geometry" />
        </mxCell>
      </root>
    </mxGraphModel>
  </diagram>
</mxfile>
